{
	"asset":{
		"generator":"Khronos glTF Blender I/O v4.4.56",
		"version":"2.0"
	},
	"scene":0,
	"scenes":[
		{
			"name":"Scene",
			"nodes":[
				0
			]
		}
	],
	"nodes":[
		{
			"mesh":0,
			"name":"Sphere",
			"scale":[
				4.499027729034424,
				4.499027729034424,
				4.499027729034424
			]
		}
	],
	"materials":[
		{
			"doubleSided":true,
			"name":"moon_flat_macro_01",
			"normalTexture":{
				"index":0
			},
			"pbrMetallicRoughness":{
				"baseColorTexture":{
					"index":1
				},
				"metallicFactor":0,
				"metallicRoughnessTexture":{
					"index":2
				}
			}
		}
	],
	"meshes":[
		{
			"name":"Sphere",
			"primitives":[
				{
					"attributes":{
						"POSITION":0,
						"NORMAL":1,
						"TEXCOORD_0":2
					},
					"indices":3,
					"material":0
				}
			]
		}
	],
	"textures":[
		{
			"sampler":0,
			"source":0
		},
		{
			"sampler":0,
			"source":1
		},
		{
			"sampler":0,
			"source":2
		}
	],
	"images":[
		{
			"mimeType":"image/png",
			"name":"moon_flat_macro_01_nor_gl",
			"uri":"moon_flat_macro_01_nor_gl.png"
		},
		{
			"mimeType":"image/jpeg",
			"name":"moon_flat_macro_01_diff",
			"uri":"moon_flat_macro_01_diff.jpg"
		},
		{
			"mimeType":"image/png",
			"name":"moon_flat_macro_01_rough",
			"uri":"moon_flat_macro_01_rough.png"
		}
	],
	"accessors":[
		{
			"bufferView":0,
			"componentType":5126,
			"count":2143,
			"max":[
				0.18500003218650818,
				0.18500001728534698,
				0.18500010669231415
			],
			"min":[
				-0.1849999725818634,
				-0.18500001728534698,
				-0.18499991297721863
			],
			"type":"VEC3"
		},
		{
			"bufferView":1,
			"componentType":5126,
			"count":2143,
			"type":"VEC3"
		},
		{
			"bufferView":2,
			"componentType":5126,
			"count":2143,
			"type":"VEC2"
		},
		{
			"bufferView":3,
			"componentType":5123,
			"count":11904,
			"type":"SCALAR"
		}
	],
	"bufferViews":[
		{
			"buffer":0,
			"byteLength":25716,
			"byteOffset":0,
			"target":34962
		},
		{
			"buffer":0,
			"byteLength":25716,
			"byteOffset":25716,
			"target":34962
		},
		{
			"buffer":0,
			"byteLength":17144,
			"byteOffset":51432,
			"target":34962
		},
		{
			"buffer":0,
			"byteLength":23808,
			"byteOffset":68576,
			"target":34963
		}
	],
	"samplers":[
		{
			"magFilter":9729,
			"minFilter":9987
		}
	],
	"buffers":[
		{
			"byteLength":92384,
			"uri":"sand_plane_4k.bin"
		}
	]
}
