{
	"asset":{
		"generator":"Khronos glTF Blender I/O v4.4.56",
		"version":"2.0"
	},
	"scene":0,
	"scenes":[
		{
			"name":"Scene",
			"nodes":[
				0
			]
		}
	],
	"nodes":[
		{
			"mesh":0,
			"name":"Earth",
			"scale":[
				1.0000027418136597,
				1.0000027418136597,
				1.0000027418136597
			]
		}
	],
	"materials":[
		{
			"doubleSided":true,
			"name":"Earth Surface",
			"pbrMetallicRoughness":{
				"metallicFactor":0
			}
		},
		{
			"alphaMode":"BLEND",
			"doubleSided":true,
			"name":"Earth Clouds",
			"pbrMetallicRoughness":{
				"baseColorTexture":{
					"index":0
				},
				"metallicFactor":0,
				"roughnessFactor":0.5
			}
		},
		{
			"alphaMode":"BLEND",
			"doubleSided":true,
			"name":"Earth Atmosphere",
			"pbrMetallicRoughness":{
				"baseColorFactor":[
					0.010216210968792439,
					0.05679896101355553,
					0.15682955086231232,
					1
				],
				"metallicFactor":0,
				"roughnessFactor":0.5
			}
		}
	],
	"meshes":[
		{
			"name":"Sphere",
			"primitives":[
				{
					"attributes":{
						"POSITION":0,
						"NORMAL":1,
						"TEXCOORD_0":2
					},
					"indices":3,
					"material":0
				},
				{
					"attributes":{
						"POSITION":4,
						"NORMAL":5,
						"TEXCOORD_0":6
					},
					"indices":3,
					"material":1
				},
				{
					"attributes":{
						"POSITION":7,
						"NORMAL":8,
						"TEXCOORD_0":9
					},
					"indices":3,
					"material":2
				}
			]
		}
	],
	"textures":[
		{
			"sampler":0,
			"source":0
		}
	],
	"images":[
		{
			"mimeType":"image/png",
			"name":"Clouds-ye7j",
			"uri":"Clouds-ye7j.png"
		}
	],
	"accessors":[
		{
			"bufferView":0,
			"componentType":5126,
			"count":2143,
			"max":[
				0.6378101110458374,
				0.6378099918365479,
				0.6378098726272583
			],
			"min":[
				-0.6378099322319031,
				-0.6378099918365479,
				-0.6378100514411926
			],
			"type":"VEC3"
		},
		{
			"bufferView":1,
			"componentType":5126,
			"count":2143,
			"type":"VEC3"
		},
		{
			"bufferView":2,
			"componentType":5126,
			"count":2143,
			"type":"VEC2"
		},
		{
			"bufferView":3,
			"componentType":5123,
			"count":11904,
			"type":"SCALAR"
		},
		{
			"bufferView":4,
			"componentType":5126,
			"count":2143,
			"max":[
				0.6395124197006226,
				0.639512300491333,
				0.6395121812820435
			],
			"min":[
				-0.6395122408866882,
				-0.639512300491333,
				-0.6395123600959778
			],
			"type":"VEC3"
		},
		{
			"bufferView":5,
			"componentType":5126,
			"count":2143,
			"type":"VEC3"
		},
		{
			"bufferView":6,
			"componentType":5126,
			"count":2143,
			"type":"VEC2"
		},
		{
			"bufferView":7,
			"componentType":5126,
			"count":2143,
			"max":[
				0.6413082480430603,
				0.6413082480430603,
				0.641308069229126
			],
			"min":[
				-0.6413081884384155,
				-0.6413082480430603,
				-0.6413082480430603
			],
			"type":"VEC3"
		},
		{
			"bufferView":8,
			"componentType":5126,
			"count":2143,
			"type":"VEC3"
		},
		{
			"bufferView":9,
			"componentType":5126,
			"count":2143,
			"type":"VEC2"
		}
	],
	"bufferViews":[
		{
			"buffer":0,
			"byteLength":25716,
			"byteOffset":0,
			"target":34962
		},
		{
			"buffer":0,
			"byteLength":25716,
			"byteOffset":25716,
			"target":34962
		},
		{
			"buffer":0,
			"byteLength":17144,
			"byteOffset":51432,
			"target":34962
		},
		{
			"buffer":0,
			"byteLength":23808,
			"byteOffset":68576,
			"target":34963
		},
		{
			"buffer":0,
			"byteLength":25716,
			"byteOffset":92384,
			"target":34962
		},
		{
			"buffer":0,
			"byteLength":25716,
			"byteOffset":118100,
			"target":34962
		},
		{
			"buffer":0,
			"byteLength":17144,
			"byteOffset":143816,
			"target":34962
		},
		{
			"buffer":0,
			"byteLength":25716,
			"byteOffset":160960,
			"target":34962
		},
		{
			"buffer":0,
			"byteLength":25716,
			"byteOffset":186676,
			"target":34962
		},
		{
			"buffer":0,
			"byteLength":17144,
			"byteOffset":212392,
			"target":34962
		}
	],
	"samplers":[
		{
			"magFilter":9729,
			"minFilter":9987
		}
	],
	"buffers":[
		{
			"byteLength":229536,
			"uri":"water_plane.bin"
		}
	]
}
